<svg xmlns="http://www.w3.org/2000/svg" width="32" height="32">
  <path d="M21 4V3h1v1h1.003C24.11 4 25 4.897 25 6.004v20.993a1.996 1.996 0 0 1-1.997 2.004H7.998a1.998 1.998 0 0 1-1.997-2.004V6.004C6.001 4.89 6.895 4 7.998 4h1.003V3h1v1h3V3h1v1h3V3h1v1h3zm0 1h-3v1h-1V5h-3v1h-1V5h-3v1H9V5H8c-.552 0-1 .439-1 1.003v20.994C7 27.551 7.455 28 8 28h15c.552 0 1-.439 1-1.003V6.003C24 5.449 23.545 5 23 5h-1v1h-1V5zm-7 7v1h8v-1h-8zm-5-1h3v3H9v-3zm1 1v1h1v-1h-1zm-1 4h3v3H9v-3zm1 1v1h1v-1h-1zm4 0v1h8v-1h-8zm-5 4h3v3H9v-3zm1 1v1h1v-1h-1zm4 0v1h8v-1h-8z"/>
</svg>